REM DIRINDEX 1\2,1\3,1\4,1\5
REM DIRNAME folder01,folder02,folder03,folder04,folder05
TITLE ""
FILE "P1Q_t_0782-0791.mp3" MP3
  TRACK 01 AUDIO
    TITLE "3:cjc005_3250"
    INDEX 01 00:00:00
  TRACK 02 AUDIO
    TITLE "0:"
    INDEX 01 00:01:13
  TRACK 03 AUDIO
    TITLE "4:cjc005_3251"
    INDEX 01 00:01:44
  TRACK 04 AUDIO
    TITLE "0:"
    INDEX 01 00:02:59
  TRACK 05 AUDIO
    TITLE "5:cjc005_3252"
    INDEX 01 00:03:08
  TRACK 06 AUDIO
    TITLE "0:"
    INDEX 01 00:07:13
  TRACK 07 AUDIO
    TITLE "3:cjc005_3253"
    INDEX 01 00:07:62
  TRACK 08 AUDIO
    TITLE "0:"
    INDEX 01 00:08:68
  TRACK 09 AUDIO
    TITLE "4:cjc005_3254"
    INDEX 01 00:09:18
  TRACK 10 AUDIO
    TITLE "0:"
    INDEX 01 00:10:29
  TRACK 11 AUDIO
    TITLE "5:cjc005_3255"
    INDEX 01 00:10:57
  TRACK 12 AUDIO
    TITLE "0:"
    INDEX 01 00:13:67
  TRACK 13 AUDIO
    TITLE "3:cjc005_3256"
    INDEX 01 00:14:43
  TRACK 14 AUDIO
    TITLE "0:"
    INDEX 01 00:15:64
  TRACK 15 AUDIO
    TITLE "4:cjc005_3257"
    INDEX 01 00:16:18
  TRACK 16 AUDIO
    TITLE "0:"
    INDEX 01 00:17:25
  TRACK 17 AUDIO
    TITLE "5:cjc005_3258"
    INDEX 01 00:17:49
  TRACK 18 AUDIO
    TITLE "0:"
    INDEX 01 00:20:55
  TRACK 19 AUDIO
    TITLE "3:cjc005_3259"
    INDEX 01 00:21:37
  TRACK 20 AUDIO
    TITLE "0:"
    INDEX 01 00:22:58
  TRACK 21 AUDIO
    TITLE "4:cjc005_3260"
    INDEX 01 00:23:14
  TRACK 22 AUDIO
    TITLE "0:"
    INDEX 01 00:24:37
  TRACK 23 AUDIO
    TITLE "5:cjc005_3261"
    INDEX 01 00:24:63
  TRACK 24 AUDIO
    TITLE "0:"
    INDEX 01 00:28:35
  TRACK 25 AUDIO
    TITLE "3:cjc005_3262"
    INDEX 01 00:29:11
  TRACK 26 AUDIO
    TITLE "0:"
    INDEX 01 00:30:34
  TRACK 27 AUDIO
    TITLE "4:cjc005_3263"
    INDEX 01 00:30:55
  TRACK 28 AUDIO
    TITLE "0:"
    INDEX 01 00:31:67
  TRACK 29 AUDIO
    TITLE "5:cjc005_3264"
    INDEX 01 00:32:19
  TRACK 30 AUDIO
    TITLE "0:"
    INDEX 01 00:35:64
  TRACK 31 AUDIO
    TITLE "3:cjc005_3265"
    INDEX 01 00:36:40
  TRACK 32 AUDIO
    TITLE "0:"
    INDEX 01 00:37:56
  TRACK 33 AUDIO
    TITLE "4:cjc005_3266"
    INDEX 01 00:38:04
  TRACK 34 AUDIO
    TITLE "0:"
    INDEX 01 00:39:02
  TRACK 35 AUDIO
    TITLE "5:cjc005_3267"
    INDEX 01 00:39:23
  TRACK 36 AUDIO
    TITLE "0:"
    INDEX 01 00:44:26
  TRACK 37 AUDIO
    TITLE "3:cjc005_3268"
    INDEX 01 00:44:73
  TRACK 38 AUDIO
    TITLE "0:"
    INDEX 01 00:46:11
  TRACK 39 AUDIO
    TITLE "4:cjc005_3269"
    INDEX 01 00:46:37
  TRACK 40 AUDIO
    TITLE "0:"
    INDEX 01 00:47:40
  TRACK 41 AUDIO
    TITLE "5:cjc005_3270"
    INDEX 01 00:47:66
  TRACK 42 AUDIO
    TITLE "0:"
    INDEX 01 00:51:32
  TRACK 43 AUDIO
    TITLE "3:cjc005_3271"
    INDEX 01 00:52:08
  TRACK 44 AUDIO
    TITLE "0:"
    INDEX 01 00:53:25
  TRACK 45 AUDIO
    TITLE "4:cjc005_3272"
    INDEX 01 00:53:53
  TRACK 46 AUDIO
    TITLE "0:"
    INDEX 01 00:54:64
  TRACK 47 AUDIO
    TITLE "5:cjc005_3273"
    INDEX 01 00:55:20
  TRACK 48 AUDIO
    TITLE "0:"
    INDEX 01 00:58:38
  TRACK 49 AUDIO
    TITLE "3:cjc005_3274"
    INDEX 01 00:59:18
  TRACK 50 AUDIO
    TITLE "0:"
    INDEX 01 01:00:37
  TRACK 51 AUDIO
    TITLE "4:cjc005_3275"
    INDEX 01 01:00:70
  TRACK 52 AUDIO
    TITLE "0:"
    INDEX 01 01:02:40
  TRACK 53 AUDIO
    TITLE "5:cjc005_3276"
    INDEX 01 01:02:69
  TRACK 54 AUDIO
    TITLE "0:"
    INDEX 01 01:06:67
  TRACK 55 AUDIO
    TITLE "3:cjc005_3277"
    INDEX 01 01:07:47
  TRACK 56 AUDIO
    TITLE "0:"
    INDEX 01 01:08:56
  TRACK 57 AUDIO
    TITLE "4:cjc005_3278"
    INDEX 01 01:09:12
  TRACK 58 AUDIO
    TITLE "0:"
    INDEX 01 01:10:28
  TRACK 59 AUDIO
    TITLE "5:cjc005_3279"
    INDEX 01 01:10:53
  TRACK 60 AUDIO
    TITLE "0:"
    INDEX 01 01:15:11
